<?xml version="1.0" ?><!DOCTYPE svg  PUBLIC '-//W3C//DTD SVG 1.1//EN'  'http://www.w3.org/Graphics/SVG/1.1/DTD/svg11.dtd'><svg height="100%" style="fill-rule:evenodd;clip-rule:evenodd;stroke-linejoin:round;stroke-miterlimit:2;" version="1.1" viewBox="0 0 32 32" width="100%" xml:space="preserve" xmlns="http://www.w3.org/2000/svg" xmlns:serif="http://www.serif.com/" xmlns:xlink="http://www.w3.org/1999/xlink"><g transform="matrix(1,0,0,1,-288,-432)"><g transform="matrix(1,0,0,1,175.502,358)"><path d="M127,76C128.902,82.086 139.296,83.853 139.296,91.986C139.296,99.283 135.26,103.931 126.963,103.884C119.597,103.842 113.316,92.425 121,85C121.803,90.146 123.385,89.837 125,90C122.985,83.822 123.4,80.968 127,76Z" style="fill:rgb(144,224,239);"/></g><g transform="matrix(1,0,0,1,175.502,358)"><path d="M127.954,75.702C127.842,75.341 127.535,75.074 127.161,75.013C126.788,74.952 126.412,75.107 126.19,75.413C124.271,78.061 123.227,80.158 122.905,82.404C122.637,84.271 122.871,86.253 123.578,88.766C123.497,88.722 123.417,88.669 123.339,88.603C122.744,88.104 122.33,87.038 121.988,84.846C121.93,84.477 121.672,84.171 121.318,84.052C120.964,83.933 120.574,84.021 120.305,84.281C115.273,89.143 116.091,95.573 119.312,99.95C121.473,102.888 124.719,104.865 127.957,104.884C132.475,104.909 135.539,103.597 137.496,101.345C139.43,99.117 140.296,95.915 140.296,91.986C140.296,87.575 137.554,84.844 134.478,82.438C133.082,81.345 131.625,80.318 130.403,79.187C129.295,78.163 128.379,77.059 127.954,75.702ZM126.83,78.012C128.247,80.334 130.807,82.105 133.245,84.013C135.842,86.044 138.296,88.263 138.296,91.986C138.296,95.354 137.644,98.124 135.986,100.033C134.35,101.917 131.747,102.905 127.968,102.884C125.314,102.869 122.695,101.173 120.922,98.764C118.552,95.542 117.702,90.98 120.436,87.169C120.884,88.773 121.461,89.638 122.052,90.134C122.921,90.864 123.894,90.894 124.9,90.995C125.236,91.029 125.567,90.891 125.779,90.627C125.991,90.364 126.056,90.011 125.951,89.69C125.004,86.786 124.601,84.668 124.885,82.688C125.106,81.141 125.749,79.689 126.83,78.011L126.83,78.012Z" style="fill:rgb(25,144,167);"/></g></g></svg>